<svg width="388" height="122" viewBox="0 0 388 122" fill="none" xmlns="http://www.w3.org/2000/svg">
<g clip-path="url(#clip0_2001_11)">
<rect x="12.15" y="6.15" width="358.7" height="108.7" rx="10.85" fill="#1E1E1E" stroke="#636363" stroke-width="0.3"/>
<path d="M35.2614 103.636L47.3295 31.6364H61.6477L60.1818 40.4318H60.8295C61.6932 39.0227 62.8409 37.5909 64.2727 36.1364C65.7273 34.6591 67.5341 33.4318 69.6932 32.4545C71.8523 31.4545 74.3864 30.9545 77.2955 30.9545C81.1364 30.9545 84.4886 31.9545 87.3523 33.9545C90.2159 35.9318 92.2841 38.9205 93.5568 42.9205C94.8523 46.8977 95 51.8864 94 57.8864C93.0455 63.7273 91.2841 68.6591 88.7159 72.6818C86.1705 76.6818 83.1136 79.7159 79.5455 81.7841C76 83.8295 72.2386 84.8523 68.2614 84.8523C65.4432 84.8523 63.125 84.3864 61.3068 83.4545C59.5114 82.5227 58.1136 81.3523 57.1136 79.9432C56.1136 78.5114 55.4091 77.0682 55 75.6136H54.4545L49.8182 103.636H35.2614ZM57.1818 57.8182C56.6818 60.9318 56.6591 63.6477 57.1136 65.9659C57.5909 68.2841 58.5455 70.0909 59.9773 71.3864C61.4091 72.6591 63.2955 73.2955 65.6364 73.2955C68 73.2955 70.1023 72.6477 71.9432 71.3523C73.7841 70.0341 75.3182 68.2159 76.5455 65.8977C77.7727 63.5568 78.6477 60.8636 79.1705 57.8182C79.6477 54.7955 79.6591 52.1364 79.2045 49.8409C78.75 47.5455 77.8182 45.75 76.4091 44.4545C75 43.1591 73.0909 42.5114 70.6818 42.5114C68.3409 42.5114 66.2386 43.1364 64.375 44.3864C62.5341 45.6364 61 47.4091 59.7727 49.7045C58.5455 52 57.6818 54.7045 57.1818 57.8182ZM99.2756 84L108.003 31.6364H122.082L120.548 40.7727H121.094C122.594 37.5227 124.605 35.0682 127.128 33.4091C129.673 31.7273 132.412 30.8864 135.344 30.8864C136.071 30.8864 136.832 30.9318 137.628 31.0227C138.446 31.0909 139.173 31.2045 139.81 31.3636L137.628 44.2841C136.991 44.0568 136.082 43.875 134.901 43.7386C133.741 43.5795 132.639 43.5 131.594 43.5C129.48 43.5 127.514 43.9659 125.696 44.8977C123.878 45.8068 122.344 47.0795 121.094 48.7159C119.866 50.3523 119.06 52.2386 118.673 54.375L113.798 84H99.2756ZM159.847 85.0227C154.506 85.0227 150.085 83.8864 146.585 81.6136C143.085 79.3182 140.619 76.1364 139.188 72.0682C137.778 67.9773 137.517 63.2159 138.403 57.7841C139.267 52.4205 141.063 47.7273 143.79 43.7045C146.517 39.6818 149.983 36.5568 154.188 34.3295C158.392 32.0795 163.131 30.9545 168.403 30.9545C173.722 30.9545 178.131 32.1023 181.631 34.3977C185.131 36.6705 187.597 39.8523 189.028 43.9432C190.46 48.0341 190.733 52.7955 189.847 58.2273C188.96 63.5682 187.142 68.25 184.392 72.2727C181.642 76.2955 178.176 79.4318 173.994 81.6818C169.813 83.9091 165.097 85.0227 159.847 85.0227ZM161.278 73.7727C163.733 73.7727 165.903 73.0795 167.79 71.6932C169.699 70.2841 171.278 68.375 172.528 65.9659C173.801 63.5341 174.688 60.7841 175.188 57.7159C175.688 54.6932 175.722 52.0114 175.29 49.6705C174.858 47.3068 173.949 45.4432 172.562 44.0795C171.199 42.7159 169.324 42.0341 166.938 42.0341C164.483 42.0341 162.301 42.7386 160.392 44.1477C158.483 45.5341 156.903 47.4432 155.653 49.875C154.403 52.3068 153.528 55.0682 153.028 58.1591C152.551 61.1591 152.517 63.8409 152.926 66.2045C153.335 68.5455 154.233 70.3977 155.619 71.7614C157.006 73.1023 158.892 73.7727 161.278 73.7727ZM213.983 31.6364L220.528 49.9432L233.449 31.6364H248.347L228.812 57.8182L240.028 84H225.199L217.869 65.8977L204.71 84H189.71L209.619 57.8182L198.983 31.6364H213.983ZM254.006 103.636C252.142 103.636 250.438 103.489 248.892 103.193C247.347 102.92 246.074 102.568 245.074 102.136L250.188 91.2955C251.801 91.8182 253.267 92.0909 254.585 92.1136C255.926 92.1364 257.153 91.7955 258.267 91.0909C259.381 90.3864 260.403 89.2273 261.335 87.6136L262.631 85.3977L252.812 31.6364H267.54L271.972 70.1591H272.517L289.869 31.6364H305.79L275.824 89.6591C274.347 92.5 272.597 94.9659 270.574 97.0568C268.574 99.1477 266.199 100.761 263.449 101.898C260.722 103.057 257.574 103.636 254.006 103.636Z" fill="white"/>
<path d="M333.979 88H304.149L316.827 11.6364H345.463C353.318 11.6364 359.881 13.2148 365.151 16.3718C370.42 19.5288 374.162 24.0405 376.374 29.907C378.586 35.7734 379.021 42.7585 377.679 50.8622C376.386 58.6676 373.764 65.342 369.811 70.8853C365.884 76.4286 360.863 80.6669 354.748 83.6001C348.657 86.5334 341.734 88 333.979 88ZM327.789 70.4006H335.321C339.099 70.4006 342.468 69.7418 345.426 68.4244C348.409 67.082 350.895 64.8448 352.883 61.7127C354.897 58.5558 356.351 54.2429 357.246 48.7741C358.091 43.6037 358.066 39.614 357.171 36.805C356.276 33.9712 354.574 32.0075 352.063 30.9137C349.552 29.7951 346.308 29.2358 342.331 29.2358H334.65L327.789 70.4006Z" fill="#FF731C"/>
</g>
<defs>
<clipPath id="clip0_2001_11">
<rect width="388" height="122" fill="white"/>
</clipPath>
</defs>
</svg>
